<svg width="48" height="48" viewBox="0 0 48 48" fill="none" xmlns="http://www.w3.org/2000/svg">
<circle cx="24" cy="24" r="23.5" fill="white" stroke="#DC23AB"/>
<path fill-rule="evenodd" clip-rule="evenodd" d="M17.9649 16.3208C17.7494 16.1126 17.4607 15.9974 17.161 16C16.8614 16.0026 16.5747 16.1228 16.3628 16.3347C16.1509 16.5466 16.0307 16.8333 16.0281 17.1329C16.0255 17.4326 16.1407 17.7213 16.3489 17.9368L22.398 23.986L16.3489 30.0351C16.2397 30.1405 16.1527 30.2666 16.0928 30.4061C16.0329 30.5455 16.0014 30.6955 16 30.8472C15.9987 30.999 16.0276 31.1494 16.0851 31.2899C16.1426 31.4304 16.2274 31.558 16.3347 31.6653C16.442 31.7726 16.5696 31.8574 16.7101 31.9149C16.8505 31.9724 17.001 32.0013 17.1528 32C17.3045 31.9986 17.4545 31.9671 17.5939 31.9072C17.7334 31.8473 17.8595 31.7603 17.9649 31.6511L24.014 25.602L30.0632 31.6511C30.2787 31.8593 30.5674 31.9745 30.8671 31.9719C31.1667 31.9693 31.4534 31.8491 31.6653 31.6372C31.8772 31.4253 31.9974 31.1386 32 30.839C32.0026 30.5393 31.8874 30.2506 31.6792 30.0351L25.63 23.986L31.6792 17.9368C31.8874 17.7213 32.0026 17.4326 32 17.1329C31.9974 16.8333 31.8772 16.5466 31.6653 16.3347C31.4534 16.1228 31.1667 16.0026 30.8671 16C30.5674 15.9974 30.2787 16.1126 30.0632 16.3208L24.014 22.37L17.9649 16.3208Z" fill="#4046B2"/>
</svg>
