<svg width="980" height="799" viewBox="0 0 980 799" fill="none" xmlns="http://www.w3.org/2000/svg">
<path d="M825.799 768.502C826.349 768.446 826.839 768.846 826.895 769.395C826.952 769.945 826.552 770.435 826.002 770.492L825.799 768.502ZM368.652 225.939L368.045 226.734L368.652 225.939ZM821.927 770.852C821.376 770.894 820.896 770.481 820.855 769.93C820.813 769.379 821.226 768.899 821.777 768.858L821.927 770.852ZM813.803 769.243C814.355 769.231 814.813 769.669 814.824 770.221C814.836 770.773 814.398 771.23 813.846 771.242L813.803 769.243ZM805.712 771.195C805.16 771.177 804.727 770.715 804.745 770.163C804.763 769.611 805.226 769.178 805.778 769.196L805.712 771.195ZM797.783 768.715C798.333 768.764 798.741 769.248 798.693 769.799C798.645 770.349 798.16 770.756 797.61 770.708L797.783 768.715ZM789.555 769.787C789.009 769.71 788.628 769.204 788.705 768.657C788.783 768.11 789.289 767.729 789.835 767.807L789.555 769.787ZM781.937 766.476C782.479 766.582 782.833 767.108 782.727 767.65C782.621 768.192 782.096 768.545 781.554 768.439L781.937 766.476ZM773.631 766.68C773.095 766.546 772.769 766.004 772.902 765.468C773.036 764.932 773.578 764.605 774.114 764.739L773.631 766.68ZM766.39 762.613C766.919 762.772 767.219 763.33 767.059 763.859C766.9 764.388 766.342 764.687 765.813 764.528L766.39 762.613ZM758.105 762.003C757.584 761.819 757.312 761.247 757.496 760.727C757.68 760.206 758.251 759.933 758.772 760.117L758.105 762.003ZM751.275 757.276C751.787 757.483 752.034 758.066 751.827 758.578C751.62 759.09 751.037 759.337 750.525 759.13L751.275 757.276ZM743.08 755.933C742.578 755.704 742.355 755.111 742.584 754.609C742.812 754.106 743.405 753.883 743.907 754.112L743.08 755.933ZM736.669 750.647C737.162 750.895 737.361 751.496 737.113 751.989C736.864 752.483 736.263 752.682 735.77 752.433L736.669 750.647ZM728.597 748.655C728.113 748.389 727.937 747.781 728.203 747.297C728.469 746.813 729.077 746.637 729.561 746.903L728.597 748.655ZM722.603 742.913C723.077 743.196 723.232 743.81 722.949 744.284C722.667 744.758 722.053 744.914 721.578 744.631L722.603 742.913ZM714.694 740.372C714.229 740.074 714.093 739.455 714.391 738.99C714.689 738.525 715.308 738.39 715.773 738.688L714.694 740.372ZM709.068 734.247C709.524 734.558 709.641 735.181 709.329 735.637C709.018 736.092 708.395 736.209 707.939 735.898L709.068 734.247ZM701.328 731.238C700.881 730.914 700.782 730.289 701.106 729.842C701.43 729.395 702.056 729.295 702.503 729.619L701.328 731.238ZM696.06 724.816C696.498 725.152 696.582 725.78 696.246 726.218C695.911 726.657 695.283 726.74 694.844 726.405L696.06 724.816ZM688.477 721.409C688.047 721.063 687.978 720.434 688.324 720.003C688.67 719.572 689.3 719.504 689.73 719.85L688.477 721.409ZM683.517 714.742C683.94 715.097 683.994 715.728 683.639 716.151C683.284 716.574 682.653 716.628 682.23 716.273L683.517 714.742ZM676.097 711.01C675.681 710.647 675.639 710.015 676.003 709.599C676.366 709.184 676.998 709.142 677.414 709.505L676.097 711.01ZM671.408 704.147C671.816 704.518 671.847 705.151 671.475 705.56C671.104 705.968 670.471 705.999 670.063 705.627L671.408 704.147ZM664.127 700.14C663.725 699.762 663.705 699.129 664.084 698.726C664.462 698.324 665.095 698.304 665.497 698.683L664.127 700.14ZM659.677 693.124C660.073 693.508 660.083 694.141 659.698 694.538C659.314 694.934 658.681 694.944 658.284 694.56L659.677 693.124ZM652.524 688.892C652.133 688.502 652.132 687.869 652.522 687.478C652.912 687.087 653.545 687.086 653.936 687.476L652.524 688.892ZM648.274 681.754C648.66 682.149 648.653 682.782 648.258 683.168C647.863 683.554 647.23 683.547 646.844 683.152L648.274 681.754ZM641.23 677.34C640.849 676.94 640.863 676.307 641.263 675.926C641.662 675.544 642.295 675.559 642.676 675.958L641.23 677.34ZM637.142 670.103C637.52 670.506 637.499 671.139 637.096 671.516C636.692 671.894 636.06 671.873 635.682 671.469L637.142 670.103ZM630.198 665.554C629.824 665.147 629.851 664.514 630.257 664.141C630.664 663.767 631.296 663.793 631.67 664.2L630.198 665.554ZM626.237 658.24C626.607 658.65 626.575 659.282 626.166 659.653C625.757 660.023 625.124 659.991 624.754 659.582L626.237 658.24ZM619.355 653.575C618.987 653.163 619.023 652.531 619.435 652.163C619.847 651.795 620.479 651.831 620.847 652.243L619.355 653.575ZM615.5 646.223C615.866 646.636 615.827 647.268 615.413 647.634C614.999 648 614.368 647.961 614.002 647.547L615.5 646.223ZM608.67 641.487C608.306 641.072 608.347 640.44 608.763 640.076C609.178 639.712 609.81 639.753 610.174 640.168L608.67 641.487ZM604.861 634.089C605.224 634.506 605.181 635.137 604.764 635.5C604.348 635.863 603.716 635.82 603.353 635.404L604.861 634.089ZM598.059 629.322C597.697 628.905 597.741 628.274 598.157 627.911C598.574 627.549 599.206 627.593 599.568 628.009L598.059 629.322ZM594.29 621.941C594.652 622.357 594.609 622.989 594.192 623.352C593.776 623.714 593.144 623.67 592.781 623.254L594.29 621.941ZM587.468 617.158C587.104 616.742 587.147 616.111 587.563 615.747C587.978 615.384 588.61 615.426 588.973 615.842L587.468 617.158ZM583.646 609.767C584.011 610.182 583.971 610.814 583.557 611.179C583.142 611.544 582.51 611.504 582.145 611.089L583.646 609.767ZM576.805 605.06C576.437 604.647 576.474 604.015 576.886 603.648C577.298 603.28 577.93 603.316 578.298 603.729L576.805 605.06ZM572.914 597.739C573.285 598.148 573.255 598.781 572.845 599.152C572.436 599.523 571.804 599.492 571.433 599.083L572.914 597.739ZM565.989 593.146C565.614 592.741 565.637 592.108 566.042 591.732C566.447 591.357 567.079 591.38 567.455 591.785L565.989 593.146ZM561.902 585.888C562.284 586.287 562.27 586.92 561.871 587.302C561.472 587.684 560.839 587.67 560.457 587.271L561.902 585.888ZM554.834 581.502C554.444 581.111 554.446 580.477 554.837 580.088C555.229 579.698 555.862 579.7 556.251 580.091L554.834 581.502ZM550.472 574.423C550.871 574.804 550.886 575.437 550.505 575.837C550.123 576.236 549.49 576.251 549.091 575.869L550.472 574.423ZM543.364 570.398C542.976 570.005 542.981 569.371 543.374 568.984C543.767 568.596 544.4 568.6 544.788 568.993L543.364 570.398ZM539.533 563.206C539.888 563.629 539.833 564.26 539.41 564.615C538.987 564.97 538.356 564.915 538.001 564.492L539.533 563.206ZM533.089 558.209C532.763 557.762 532.861 557.137 533.307 556.811C533.752 556.485 534.378 556.583 534.704 557.029L533.089 558.209ZM530.251 550.544C530.551 551.008 530.419 551.627 529.955 551.927C529.491 552.227 528.872 552.094 528.572 551.63L530.251 550.544ZM524.422 544.861C524.144 544.384 524.306 543.772 524.783 543.494C525.26 543.216 525.873 543.378 526.15 543.855L524.422 544.861ZM522.346 537.004C522.605 537.492 522.42 538.098 521.932 538.356C521.444 538.615 520.839 538.43 520.58 537.942L522.346 537.004ZM516.983 530.873C516.741 530.377 516.946 529.778 517.442 529.536C517.938 529.293 518.537 529.499 518.78 529.995L516.983 530.873ZM515.415 522.851C515.643 523.354 515.421 523.947 514.918 524.175C514.415 524.404 513.823 524.181 513.594 523.679L515.415 522.851ZM510.401 516.421C510.184 515.913 510.42 515.326 510.928 515.109C511.436 514.893 512.023 515.129 512.24 515.637L510.401 516.421ZM509.231 508.379C509.438 508.891 509.19 509.474 508.678 509.681C508.166 509.887 507.583 509.64 507.377 509.127L509.231 508.379ZM504.473 501.748C504.275 501.232 504.532 500.654 505.047 500.456C505.563 500.258 506.141 500.515 506.339 501.03L504.473 501.748ZM503.556 493.629C503.747 494.147 503.481 494.722 502.963 494.913C502.445 495.104 501.87 494.838 501.679 494.32L503.556 493.629ZM498.997 486.905C498.812 486.385 499.084 485.813 499.604 485.628C500.124 485.443 500.696 485.715 500.881 486.235L498.997 486.905ZM498.269 478.774C498.449 479.296 498.172 479.865 497.65 480.046C497.128 480.226 496.558 479.949 496.378 479.426L498.269 478.774ZM493.825 471.934C493.649 471.41 493.93 470.843 494.453 470.667C494.977 470.491 495.544 470.772 495.72 471.295L493.825 471.934ZM493.227 463.82C493.401 464.344 493.116 464.91 492.592 465.083C492.067 465.256 491.502 464.972 491.328 464.447L493.227 463.82ZM488.858 456.915C488.687 456.39 488.974 455.825 489.499 455.654C490.024 455.483 490.589 455.77 490.76 456.296L488.858 456.915ZM488.329 448.794C488.498 449.32 488.21 449.884 487.684 450.053C487.159 450.223 486.595 449.934 486.426 449.409L488.329 448.794ZM484.004 441.884C483.836 441.358 484.125 440.795 484.651 440.626C485.177 440.457 485.74 440.747 485.909 441.273L484.004 441.884ZM483.491 433.737C483.66 434.263 483.37 434.826 482.844 434.995C482.318 435.164 481.755 434.874 481.587 434.348L483.491 433.737ZM479.174 426.838C479.005 426.313 479.294 425.749 479.82 425.58C480.345 425.411 480.909 425.7 481.078 426.226L479.174 426.838ZM478.645 418.692C478.815 419.218 478.528 419.782 478.002 419.952C477.477 420.122 476.913 419.835 476.743 419.309L478.645 418.692ZM474.298 411.807C474.126 411.282 474.412 410.717 474.937 410.545C475.462 410.373 476.026 410.659 476.198 411.184L474.298 411.807ZM473.72 403.674C473.894 404.198 473.611 404.764 473.087 404.938C472.563 405.112 471.997 404.829 471.822 404.304L473.72 403.674ZM469.311 396.815C469.134 396.292 469.415 395.725 469.938 395.548C470.461 395.371 471.029 395.651 471.206 396.174L469.311 396.815ZM468.649 388.694C468.829 389.216 468.552 389.785 468.03 389.965C467.508 390.146 466.939 389.869 466.758 389.347L468.649 388.694ZM464.152 381.89C463.968 381.369 464.24 380.798 464.761 380.613C465.282 380.429 465.853 380.702 466.037 381.223L464.152 381.89ZM463.369 373.779C463.557 374.298 463.29 374.872 462.771 375.061C462.251 375.249 461.678 374.982 461.489 374.462L463.369 373.779ZM458.758 367.056C458.564 366.539 458.827 365.963 459.344 365.769C459.861 365.575 460.437 365.838 460.631 366.355L458.758 367.056ZM457.818 358.96C458.018 359.475 457.761 360.054 457.246 360.253C456.731 360.452 456.152 360.196 455.953 359.681L457.818 358.96ZM453.065 352.337C452.86 351.824 453.109 351.242 453.621 351.037C454.134 350.831 454.716 351.081 454.921 351.594L453.065 352.337ZM451.934 344.267C452.146 344.778 451.905 345.363 451.395 345.575C450.885 345.787 450.299 345.545 450.087 345.035L451.934 344.267ZM447.008 337.768C446.789 337.261 447.022 336.673 447.529 336.453C448.036 336.234 448.624 336.468 448.844 336.974L447.008 337.768ZM445.648 329.737C445.875 330.241 445.651 330.833 445.148 331.06C444.645 331.287 444.052 331.063 443.825 330.56L445.648 329.737ZM440.521 323.394C440.286 322.894 440.5 322.298 440.999 322.063C441.499 321.827 442.095 322.041 442.33 322.541L440.521 323.394ZM438.889 315.41C439.133 315.905 438.93 316.504 438.435 316.749C437.94 316.994 437.34 316.791 437.096 316.296L438.889 315.41ZM433.536 309.266C433.282 308.775 433.473 308.172 433.963 307.917C434.453 307.663 435.057 307.854 435.311 308.344L433.536 309.266ZM431.585 301.347C431.85 301.831 431.671 302.439 431.187 302.704C430.702 302.969 430.095 302.791 429.83 302.306L431.585 301.347ZM425.98 295.447C425.704 294.969 425.868 294.357 426.347 294.081C426.825 293.806 427.436 293.97 427.712 294.448L425.98 295.447ZM423.663 287.62C423.95 288.091 423.801 288.707 423.33 288.994C422.858 289.282 422.243 289.133 421.955 288.662L423.663 287.62ZM417.769 281.998C417.469 281.534 417.601 280.915 418.065 280.615C418.529 280.315 419.148 280.448 419.448 280.911L417.769 281.998ZM415.048 274.315C415.361 274.77 415.246 275.393 414.791 275.706C414.336 276.019 413.713 275.904 413.4 275.449L415.048 274.315ZM408.841 269.029C408.514 268.584 408.61 267.958 409.056 267.631C409.501 267.304 410.127 267.401 410.453 267.846L408.841 269.029ZM405.667 261.533C406.008 261.968 405.932 262.597 405.497 262.937C405.063 263.278 404.434 263.202 404.094 262.767L405.667 261.533ZM399.131 256.652C398.776 256.229 398.83 255.599 399.253 255.243C399.676 254.888 400.306 254.942 400.662 255.365L399.131 256.652ZM395.45 249.385C395.821 249.794 395.789 250.427 395.379 250.797C394.969 251.167 394.337 251.136 393.967 250.726L395.45 249.385ZM388.587 244.993C388.201 244.598 388.209 243.965 388.604 243.579C389 243.194 389.633 243.202 390.018 243.597L388.587 244.993ZM384.365 238.023C384.766 238.403 384.783 239.036 384.403 239.437C384.024 239.838 383.391 239.855 382.99 239.475L384.365 238.023ZM377.175 234.19C376.759 233.827 376.716 233.195 377.078 232.779C377.441 232.363 378.073 232.319 378.489 232.682L377.175 234.19ZM372.394 227.593C372.825 227.938 372.896 228.567 372.551 228.999C372.206 229.43 371.577 229.501 371.146 229.156L372.394 227.593ZM364.855 224.26C364.421 223.918 364.346 223.289 364.688 222.855C365.029 222.421 365.658 222.347 366.092 222.688L364.855 224.26ZM359.998 217.738C360.422 218.093 360.477 218.724 360.123 219.147C359.768 219.57 359.137 219.626 358.714 219.271L359.998 217.738ZM352.662 214.037C352.25 213.67 352.214 213.037 352.581 212.625C352.949 212.213 353.581 212.177 353.993 212.545L352.662 214.037ZM348.2 207.207C348.6 207.588 348.616 208.221 348.235 208.621C347.854 209.021 347.222 209.037 346.821 208.656L348.2 207.207ZM341.166 203.102C340.778 202.709 340.782 202.076 341.175 201.688C341.568 201.3 342.202 201.305 342.589 201.698L341.166 203.102ZM337.115 195.965C337.49 196.371 337.466 197.004 337.06 197.378C336.655 197.753 336.022 197.729 335.647 197.323L337.115 195.965ZM330.342 191.396C329.98 190.979 330.025 190.347 330.442 189.986C330.86 189.624 331.491 189.669 331.853 190.086L330.342 191.396ZM326.794 184.06C327.142 184.489 327.078 185.119 326.649 185.467C326.221 185.816 325.591 185.751 325.242 185.322L326.794 184.06ZM320.315 179.069C319.98 178.63 320.064 178.002 320.503 177.667C320.942 177.332 321.57 177.416 321.905 177.855L320.315 179.069ZM317.199 171.497C317.521 171.946 317.419 172.571 316.97 172.893C316.521 173.215 315.897 173.112 315.575 172.663L317.199 171.497ZM311.029 166.139C310.719 165.682 310.839 165.06 311.297 164.75C311.754 164.441 312.376 164.561 312.685 165.018L311.029 166.139ZM308.35 158.427C308.648 158.892 308.512 159.511 308.047 159.808C307.582 160.106 306.963 159.97 306.666 159.505L308.35 158.427ZM302.47 152.773C302.183 152.301 302.333 151.686 302.805 151.399C303.277 151.112 303.892 151.262 304.179 151.734L302.47 152.773ZM300.139 144.928C300.416 145.406 300.254 146.018 299.776 146.295C299.299 146.572 298.687 146.41 298.41 145.932L300.139 144.928ZM294.479 139.021C294.21 138.539 294.383 137.929 294.865 137.66C295.347 137.391 295.956 137.564 296.225 138.046L294.479 139.021ZM292.415 131.108C292.678 131.594 292.497 132.201 292.012 132.464C291.526 132.726 290.919 132.546 290.656 132.06L292.415 131.108ZM286.911 125.066C286.652 124.578 286.838 123.973 287.326 123.714C287.814 123.455 288.419 123.641 288.678 124.129L286.911 125.066ZM284.981 117.124C285.238 117.613 285.051 118.218 284.562 118.475C284.073 118.732 283.468 118.544 283.211 118.056L284.981 117.124ZM279.519 111.048C279.261 110.56 279.447 109.955 279.936 109.697C280.424 109.439 281.029 109.625 281.287 110.113L279.519 111.048ZM277.554 103.117C277.816 103.603 277.635 104.209 277.149 104.472C276.663 104.734 276.056 104.552 275.794 104.066L277.554 103.117ZM271.99 97.1341C271.721 96.6521 271.893 96.0428 272.375 95.7731C272.856 95.5035 273.466 95.6756 273.735 96.1576L271.99 97.1341ZM269.782 89.2652C270.062 89.7409 269.904 90.354 269.428 90.6346C268.953 90.9152 268.34 90.757 268.059 90.2813L269.782 89.2652ZM263.949 83.5429C263.654 83.0761 263.793 82.4584 264.26 82.1632C264.727 81.8679 265.344 82.007 265.64 82.4738L263.949 83.5429ZM261.255 75.8256C261.568 76.2802 261.454 76.903 260.999 77.2166C260.545 77.5302 259.922 77.4158 259.608 76.9611L261.255 75.8256ZM254.985 70.5858C254.649 70.147 254.733 69.5193 255.172 69.1839C255.611 68.8485 256.238 68.9323 256.574 69.3711L254.985 70.5858ZM251.55 63.1692C251.91 63.5879 251.863 64.2193 251.444 64.5795C251.026 64.9397 250.394 64.8922 250.034 64.4735L251.55 63.1692ZM244.721 58.6857C244.335 58.2915 244.34 57.6584 244.735 57.2714C245.129 56.8846 245.762 56.8905 246.149 57.2846L244.721 58.6857ZM240.351 51.7831C240.765 52.1484 240.804 52.7804 240.439 53.1947C240.074 53.6089 239.442 53.6486 239.028 53.2833L240.351 51.7831ZM232.953 48.3208C232.512 47.988 232.424 47.3609 232.757 46.9201C233.09 46.4793 233.717 46.3917 234.158 46.7246L232.953 48.3208ZM227.593 42.1546C228.058 42.4525 228.193 43.071 227.896 43.5361C227.598 44.0012 226.979 44.1369 226.514 43.8391L227.593 42.1546ZM219.745 39.8608C219.259 39.5992 219.077 38.9927 219.339 38.5064C219.6 38.02 220.207 37.8378 220.693 38.0996L219.745 39.8608ZM213.504 34.5633C214.008 34.7892 214.234 35.3809 214.008 35.8849C213.782 36.3889 213.19 36.6143 212.686 36.3884L213.504 34.5633ZM205.433 33.4275C204.915 33.2357 204.65 32.6603 204.842 32.1424C205.034 31.6245 205.609 31.36 206.127 31.5518L205.433 33.4275ZM198.587 29.0217C199.116 29.1817 199.415 29.7399 199.255 30.2686C199.095 30.7972 198.537 31.0961 198.008 30.9361L198.587 29.0217ZM190.438 28.8735C189.901 28.7427 189.572 28.2017 189.703 27.6651C189.834 27.1285 190.374 26.7995 190.911 26.9303L190.438 28.8735ZM183.108 25.234C183.65 25.3382 184.005 25.8625 183.901 26.4049C183.797 26.9472 183.273 27.3024 182.73 27.1981L183.108 25.234ZM174.892 25.8724C174.345 25.792 173.967 25.2839 174.048 24.7375C174.128 24.191 174.636 23.8132 175.182 23.8935L174.892 25.8724ZM167.373 22.9005C167.922 22.9599 168.319 23.4531 168.259 24.0023C168.2 24.5514 167.707 24.9484 167.158 24.889L167.373 22.9005ZM826.002 770.492C824.639 770.631 823.281 770.751 821.927 770.852L821.777 768.858C823.113 768.758 824.454 768.639 825.799 768.502L826.002 770.492ZM813.846 771.242C811.116 771.3 808.405 771.284 805.712 771.195L805.778 769.196C808.435 769.284 811.11 769.3 813.803 769.243L813.846 771.242ZM797.61 770.708C794.906 770.472 792.221 770.164 789.555 769.787L789.835 767.807C792.466 768.179 795.116 768.483 797.783 768.715L797.61 770.708ZM781.554 768.439C778.894 767.92 776.253 767.332 773.631 766.68L774.114 764.739C776.704 765.383 779.311 765.963 781.937 766.476L781.554 768.439ZM765.813 764.528C763.225 763.747 760.656 762.905 758.105 762.003L758.772 760.117C761.294 761.009 763.833 761.842 766.39 762.613L765.813 764.528ZM750.525 759.13C748.025 758.119 745.544 757.052 743.08 755.933L743.907 754.112C746.346 755.22 748.802 756.275 751.275 757.276L750.525 759.13ZM735.77 752.433C733.362 751.222 730.971 749.962 728.597 748.655L729.561 746.903C731.914 748.198 734.283 749.447 736.669 750.647L735.77 752.433ZM721.578 744.631C719.267 743.253 716.972 741.832 714.694 740.372L715.773 738.688C718.034 740.137 720.31 741.546 722.603 742.913L721.578 744.631ZM707.939 735.898C705.72 734.38 703.516 732.826 701.328 731.238L702.503 729.619C704.676 731.196 706.865 732.739 709.068 734.247L707.939 735.898ZM694.844 726.405C692.707 724.769 690.585 723.103 688.477 721.409L689.73 719.85C691.826 721.534 693.935 723.191 696.06 724.816L694.844 726.405ZM682.23 716.273C680.171 714.543 678.127 712.788 676.097 711.01L677.414 709.505C679.434 711.274 681.469 713.02 683.517 714.742L682.23 716.273ZM670.063 705.627C668.07 703.817 666.092 701.987 664.127 700.14L665.497 698.683C667.454 700.522 669.424 702.345 671.408 704.147L670.063 705.627ZM658.284 694.56C656.351 692.684 654.431 690.794 652.524 688.892L653.936 687.476C655.837 689.372 657.75 691.255 659.677 693.124L658.284 694.56ZM646.844 683.152C644.959 681.223 643.088 679.285 641.23 677.34L642.676 675.958C644.529 677.899 646.395 679.831 648.274 681.754L646.844 683.152ZM635.682 671.469C633.841 669.502 632.013 667.529 630.198 665.554L631.67 664.2C633.482 666.171 635.306 668.14 637.142 670.103L635.682 671.469ZM624.754 659.582C622.941 657.579 621.142 655.576 619.355 653.575L620.847 652.243C622.631 654.24 624.427 656.24 626.237 658.24L624.754 659.582ZM614.002 647.547C612.212 645.521 610.434 643.5 608.67 641.487L610.174 640.168C611.937 642.18 613.712 644.199 615.5 646.223L614.002 647.547ZM603.353 635.404C601.576 633.364 599.811 631.336 598.059 629.322L599.568 628.009C601.32 630.023 603.084 632.051 604.861 634.089L603.353 635.404ZM592.781 623.254C590.996 621.203 589.225 619.17 587.468 617.158L588.973 615.842C590.732 617.855 592.504 619.889 594.29 621.941L592.781 623.254ZM582.145 611.089C580.351 609.052 578.571 607.041 576.805 605.06L578.298 603.729C580.067 605.713 581.85 607.727 583.646 609.767L582.145 611.089ZM571.433 599.083C569.603 597.065 567.789 595.084 565.989 593.146L567.455 591.785C569.26 593.73 571.08 595.716 572.914 597.739L571.433 599.083ZM560.457 587.271C558.566 585.294 556.691 583.369 554.834 581.502L556.251 580.091C558.119 581.968 560.003 583.902 561.902 585.888L560.457 587.271ZM549.091 575.869C548.124 574.945 547.162 574.04 546.204 573.152L547.564 571.685C548.529 572.58 549.498 573.493 550.472 574.423L549.091 575.869ZM546.204 573.152C545.244 572.263 544.298 571.344 543.364 570.398L544.788 568.993C545.701 569.919 546.626 570.817 547.564 571.685L546.204 573.152ZM538.001 564.492C536.321 562.491 534.685 560.394 533.089 558.209L534.704 557.029C536.276 559.181 537.884 561.242 539.533 563.206L538.001 564.492ZM528.572 551.63C527.159 549.446 525.776 547.188 524.422 544.861L526.15 543.855C527.49 546.156 528.856 548.387 530.251 550.544L528.572 551.63ZM520.58 537.942C519.359 535.641 518.161 533.284 516.983 530.873L518.78 529.995C519.949 532.387 521.137 534.725 522.346 537.004L520.58 537.942ZM513.594 523.679C512.514 521.303 511.451 518.883 510.401 516.421L512.24 515.637C513.284 518.085 514.342 520.491 515.415 522.851L513.594 523.679ZM507.377 509.127C506.398 506.702 505.431 504.242 504.473 501.748L506.339 501.03C507.294 503.515 508.257 505.965 509.231 508.379L507.377 509.127ZM501.679 494.32C500.779 491.876 499.885 489.404 498.997 486.905L500.881 486.235C501.767 488.727 502.658 491.192 503.556 493.629L501.679 494.32ZM496.378 479.426C495.524 476.951 494.673 474.452 493.825 471.934L495.72 471.295C496.567 473.81 497.416 476.303 498.269 478.774L496.378 479.426ZM491.328 464.447C490.505 461.953 489.682 459.442 488.858 456.915L490.76 456.296C491.582 458.82 492.404 461.329 493.227 463.82L491.328 464.447ZM486.426 449.409C485.62 446.913 484.814 444.404 484.004 441.884L485.909 441.273C486.718 443.792 487.524 446.3 488.329 448.794L486.426 449.409ZM481.587 434.348C480.786 431.854 479.983 429.35 479.174 426.838L481.078 426.226C481.887 428.738 482.691 431.243 483.491 433.737L481.587 434.348ZM476.743 419.309C475.934 416.814 475.119 414.313 474.298 411.807L476.198 411.184C477.02 413.692 477.836 416.195 478.645 418.692L476.743 419.309ZM471.822 404.304C470.993 401.81 470.157 399.313 469.311 396.815L471.206 396.174C472.052 398.676 472.89 401.176 473.72 403.674L471.822 404.304ZM466.758 389.347C465.899 386.86 465.031 384.374 464.152 381.89L466.037 381.223C466.918 383.712 467.788 386.203 468.649 388.694L466.758 389.347ZM461.489 374.462C460.591 371.99 459.681 369.52 458.758 367.056L460.631 366.355C461.556 368.826 462.468 371.301 463.369 373.779L461.489 374.462ZM455.953 359.681C455.004 357.226 454.042 354.777 453.065 352.337L454.921 351.594C455.901 354.042 456.867 356.498 457.818 358.96L455.953 359.681ZM450.087 345.035C449.077 342.603 448.051 340.18 447.008 337.768L448.844 336.974C449.89 339.395 450.92 341.827 451.934 344.267L450.087 345.035ZM443.825 330.56C442.742 328.158 441.641 325.769 440.521 323.394L442.33 322.541C443.455 324.926 444.561 327.326 445.648 329.737L443.825 330.56ZM437.096 316.296C435.93 313.936 434.743 311.592 433.536 309.266L435.311 308.344C436.525 310.682 437.717 313.038 438.889 315.41L437.096 316.296ZM429.83 302.306C428.569 299.999 427.286 297.713 425.98 295.447L427.712 294.448C429.027 296.727 430.317 299.027 431.585 301.347L429.83 302.306ZM421.955 288.662C420.585 286.416 419.19 284.195 417.769 281.998L419.448 280.911C420.879 283.123 422.284 285.36 423.663 287.62L421.955 288.662ZM413.4 275.449C411.909 273.281 410.389 271.14 408.841 269.029L410.453 267.846C412.014 269.974 413.545 272.131 415.048 274.315L413.4 275.449ZM404.094 262.767C402.471 260.697 400.817 258.658 399.131 256.652L400.662 255.365C402.363 257.389 404.031 259.445 405.667 261.533L404.094 262.767ZM393.967 250.726C392.207 248.779 390.414 246.868 388.587 244.993L390.018 243.597C391.864 245.49 393.674 247.42 395.45 249.385L393.967 250.726ZM382.99 239.475C381.088 237.674 379.15 235.911 377.175 234.19L378.489 232.682C380.485 234.422 382.444 236.203 384.365 238.023L382.99 239.475ZM371.146 229.156C370.122 228.338 369.088 227.531 368.045 226.734L369.259 225.144C370.314 225.95 371.359 226.766 372.394 227.593L371.146 229.156ZM368.045 226.734C366.968 225.912 365.904 225.087 364.855 224.26L366.092 222.688C367.134 223.509 368.189 224.328 369.259 225.144L368.045 226.734ZM358.714 219.271C356.642 217.535 354.625 215.79 352.662 214.037L353.993 212.545C355.941 214.284 357.942 216.015 359.998 217.738L358.714 219.271ZM346.821 208.656C344.882 206.812 342.998 204.96 341.166 203.102L342.589 201.698C344.407 203.54 346.276 205.377 348.2 207.207L346.821 208.656ZM335.647 197.323C333.825 195.352 332.058 193.376 330.342 191.396L331.853 190.086C333.555 192.05 335.308 194.01 337.115 195.965L335.647 197.323ZM325.242 185.322C323.549 183.24 321.908 181.155 320.315 179.069L321.905 177.855C323.485 179.925 325.114 181.994 326.794 184.06L325.242 185.322ZM315.575 172.663C314.013 170.487 312.499 168.312 311.029 166.139L312.685 165.018C314.145 167.176 315.648 169.337 317.199 171.497L315.575 172.663ZM306.666 159.505C305.226 157.255 303.829 155.011 302.47 152.773L304.179 151.734C305.531 153.96 306.92 156.191 308.35 158.427L306.666 159.505ZM298.41 145.932C297.067 143.618 295.758 141.313 294.479 139.021L296.225 138.046C297.5 140.33 298.803 142.625 300.139 144.928L298.41 145.932ZM290.656 132.06C289.385 129.713 288.139 127.38 286.911 125.066L288.678 124.129C289.904 126.439 291.147 128.767 292.415 131.108L290.656 132.06ZM283.211 118.056C281.97 115.697 280.742 113.36 279.519 111.048L281.287 110.113C282.511 112.428 283.74 114.766 284.981 117.124L283.211 118.056ZM275.794 104.066C274.53 101.725 273.265 99.413 271.99 97.1341L273.735 96.1576C275.016 98.4472 276.287 100.768 277.554 103.117L275.794 104.066ZM268.059 90.2813C266.711 87.9952 265.344 85.7479 263.949 83.5429L265.64 82.4738C267.047 84.6986 268.424 86.9636 269.782 89.2652L268.059 90.2813ZM259.608 76.9611C258.109 74.7866 256.571 72.6603 254.985 70.5858L256.574 69.3711C258.181 71.4738 259.738 73.6266 261.255 75.8256L259.608 76.9611ZM250.034 64.4735C248.325 62.4866 246.557 60.5561 244.721 58.6857L246.149 57.2846C248.017 59.188 249.814 61.151 251.55 63.1692L250.034 64.4735ZM239.028 53.2833C237.082 51.5669 235.06 49.9115 232.953 48.3208L234.158 46.7246C236.306 48.3466 238.367 50.0341 240.351 51.7831L239.028 53.2833ZM226.514 43.8391C224.346 42.4509 222.093 41.1238 219.745 39.8608L220.693 38.0996C223.085 39.3864 225.382 40.7392 227.593 42.1546L226.514 43.8391ZM212.686 36.3884C210.356 35.344 207.941 34.3562 205.433 33.4275L206.127 31.5518C208.676 32.4957 211.133 33.5003 213.504 34.5633L212.686 36.3884ZM198.008 30.9361C195.567 30.1974 193.045 29.5092 190.438 28.8735L190.911 26.9303C193.553 27.5744 196.111 28.2721 198.587 29.0217L198.008 30.9361ZM182.73 27.1981C180.194 26.7104 177.582 26.268 174.892 25.8724L175.182 23.8935C177.901 24.2933 180.542 24.7405 183.108 25.234L182.73 27.1981ZM167.158 24.889C165.835 24.7461 164.495 24.6135 163.136 24.4915L163.315 22.4994C164.685 22.6225 166.038 22.7562 167.373 22.9005L167.158 24.889Z" fill="#333333"/>
<circle cx="146" cy="19" r="18" stroke="#333333" stroke-width="2"/>
<g clip-path="url(#clip0_887_7788)">
<path d="M835.867 730C835.514 730 835.176 730.14 834.926 730.39C834.677 730.639 834.537 730.977 834.537 731.33V765.34H830.901C830.548 765.34 830.21 765.48 829.96 765.73C829.711 765.979 829.571 766.317 829.571 766.67C829.571 767.023 829.711 767.361 829.96 767.61C830.21 767.86 830.548 768 830.901 768H840.4C840.752 768 841.091 767.86 841.34 767.61C841.589 767.361 841.729 767.023 841.729 766.67C841.729 766.317 841.589 765.979 841.34 765.73C841.091 765.48 840.752 765.34 840.4 765.34H837.197V747.86H853.535C853.887 747.86 854.226 747.72 854.475 747.47C854.724 747.221 854.865 746.883 854.865 746.53V731.33C854.865 730.977 854.724 730.639 854.475 730.39C854.226 730.14 853.887 730 853.535 730H836.057C836.024 730 835.992 730.001 835.96 730.004C835.929 730.001 835.898 730 835.867 730V730ZM841.11 732.66H844.834V735.483H848.557V732.66H852.205V735.483H848.557V739.207H852.205V742.931H848.557V745.2H844.834V742.931H841.11V745.2H837.387V742.931H841.11V739.207H837.387V735.483H841.11V732.66ZM841.11 735.483V739.207H844.834V735.483H841.11V735.483ZM844.834 739.207V742.931H848.557V739.207H844.834Z" fill="#333333"/>
</g>
<defs>
<clipPath id="clip0_887_7788">
<rect width="37.9957" height="38" fill="white" transform="translate(816.869 730)"/>
</clipPath>
</defs>
</svg>
