<svg width="20" height="21" viewBox="0 0 20 21" fill="none" xmlns="http://www.w3.org/2000/svg">
<path d="M10 18.5C12.1217 18.5 14.1566 17.6571 15.6569 16.1569C17.1571 14.6566 18 12.6217 18 10.5C18 8.37827 17.1571 6.34344 15.6569 4.84315C14.1566 3.34285 12.1217 2.5 10 2.5C7.87827 2.5 5.84344 3.34285 4.34315 4.84315C2.84285 6.34344 2 8.37827 2 10.5C2 12.6217 2.84285 14.6566 4.34315 16.1569C5.84344 17.6571 7.87827 18.5 10 18.5ZM10 20.5C4.477 20.5 0 16.023 0 10.5C0 4.977 4.477 0.5 10 0.5C15.523 0.5 20 4.977 20 10.5C20 16.023 15.523 20.5 10 20.5ZM6.89 11.67L4.392 10.891C3.852 10.726 3.849 10.354 4.513 10.087L14.246 6.327C14.811 6.097 15.131 6.388 14.948 7.117L13.291 14.937C13.175 15.494 12.84 15.627 12.375 15.37L9.824 13.482L8.635 14.63C8.513 14.748 8.414 14.849 8.226 14.874C8.039 14.9 7.885 14.844 7.772 14.534L6.902 11.663L6.89 11.671V11.67Z" fill="#4046B2"/>
</svg>
