<svg width="20" height="21" viewBox="0 0 20 21" fill="none" xmlns="http://www.w3.org/2000/svg">
<path d="M9.75997 0C8.17817 0 4.26531 0.167331 2.18401 2.1753C0.685464 3.59761 0.102698 5.77291 0.0194457 8.36653C-0.147059 12.4661 0.768716 15.0598 2.26726 16.3984C2.60027 16.6494 3.43279 17.3187 5.01458 17.8207V19.9123C5.01458 19.9123 5.01458 20.749 5.5141 20.9163C5.59735 20.9163 5.6806 21 5.76385 21C6.26337 21 6.67963 20.4143 7.2624 19.8287C7.76191 19.243 8.17817 18.8247 8.42793 18.4064H10.2595C11.8413 18.4064 15.7541 18.239 17.8354 16.2311C19.334 14.7251 19.9167 12.5498 19.9167 9.78884C20 9.37052 20 8.86853 20 8.36653C19.9167 5.27092 19.001 3.17928 17.7522 2.00797C17.2527 1.58964 15.0881 0 10.426 0L9.75997 0ZM9.59346 1.58964H10.3427C14.7551 1.58964 16.4202 3.01195 16.5867 3.17928C17.5857 4.01594 18.1684 5.85657 18.2517 8.28287V8.61753C18.335 9.11952 18.335 9.53785 18.335 9.78884C18.2517 12.2988 17.7522 13.9721 16.7532 15.0598C15.0049 16.6494 11.3418 16.7331 10.3427 16.7331H8.76094L7.4289 18.239L6.59638 19.1594L6.42987 19.4104C6.26337 19.5777 6.01361 19.9123 5.84711 19.996V16.2311C4.18206 15.8127 3.51604 15.2271 3.34954 15.0598C2.18401 14.0558 1.51799 11.6295 1.68449 8.36653V7.52988C1.851 5.52191 2.35051 4.18327 3.18303 3.26295C4.93133 1.67331 8.59443 1.58964 9.59346 1.58964ZM9.51021 3.43028C9.09395 3.43028 9.09395 4.01594 9.51021 4.01594C12.5905 4.01594 15.2546 6.10757 15.2546 10.0398C15.2546 10.4582 15.8374 10.4582 15.8374 10.0398C15.8374 5.77291 13.0068 3.34661 9.51021 3.43028ZM6.21092 4.20418C6.02229 4.18146 5.83229 4.2337 5.68144 4.34976C4.84891 4.76809 4.01556 5.60641 4.26531 6.52673C4.26531 6.52673 4.43182 7.27888 5.34759 8.86853C5.84711 9.62151 6.26337 10.2908 6.67963 10.7928C7.09589 11.3785 7.76191 12.0478 8.42793 12.5498C9.75997 13.6374 11.8413 14.7251 12.757 14.9761C13.5896 15.2271 14.5053 14.3904 14.9216 13.5538C15.0881 13.2191 15.0049 12.8008 14.6719 12.5498C14.1723 12.0478 13.3398 11.4622 12.757 11.1275C12.3408 10.8765 11.8413 11.0438 11.6748 11.2948L11.2585 11.7968C11.092 12.0478 10.6757 12.0478 10.6757 12.0478C7.92841 11.2948 7.17914 8.4502 7.17914 8.4502C7.17914 8.4502 7.17914 8.11554 7.4289 7.86454L7.92842 7.44621C8.17817 7.27888 8.34468 6.77689 8.09492 6.35857C7.92841 6.10757 7.67866 5.60558 7.4289 5.35458C7.17914 5.01992 6.67963 4.43426 6.67963 4.43426C6.55332 4.30715 6.38833 4.22616 6.21092 4.20418ZM10.093 5.10359C9.67671 5.01992 9.59346 5.68924 10.0097 5.68924C12.3408 5.85657 13.6728 7.44621 13.5896 9.45418C13.5063 9.87251 14.1723 9.87251 14.1723 9.45418C14.2556 7.11155 12.757 5.18725 10.093 5.10359ZM10.3427 6.69323C9.92647 6.60956 9.92647 7.27888 10.3427 7.27888C11.3418 7.27888 11.8413 7.86454 11.8413 8.86853C11.9245 9.28685 12.5073 9.28685 12.5073 8.86853C12.424 7.52988 11.6748 6.69323 10.3427 6.69323Z" fill="#4046B2"/>
</svg>
