<svg width="20" height="21" viewBox="0 0 20 21" fill="none" xmlns="http://www.w3.org/2000/svg">
<path d="M17.0854 3.41006C16.164 2.48399 15.0665 1.74973 13.8569 1.25011C12.6473 0.750494 11.3499 0.49552 10.0402 0.50006C4.55276 0.50006 0.0804022 4.95006 0.0804022 10.4101C0.0804022 12.1601 0.542714 13.8601 1.40704 15.3601L0 20.5001L5.27638 19.1201C6.73367 19.9101 8.37186 20.3301 10.0402 20.3301C15.5276 20.3301 20 15.8801 20 10.4201C20 7.77006 18.9648 5.28006 17.0854 3.41006ZM10.0402 18.6501C8.55276 18.6501 7.09548 18.2501 5.81909 17.5001L5.51759 17.3201L2.38191 18.1401L3.21608 15.1001L3.01508 14.7901C2.18869 13.477 1.74989 11.9593 1.74874 10.4101C1.74874 5.87006 5.46734 2.17006 10.0301 2.17006C12.2412 2.17006 14.3216 3.03006 15.8794 4.59006C16.6507 5.35402 17.262 6.26272 17.6778 7.26348C18.0936 8.26425 18.3056 9.33717 18.3015 10.4201C18.3216 14.9601 14.603 18.6501 10.0402 18.6501ZM14.5829 12.4901C14.3317 12.3701 13.1055 11.7701 12.8844 11.6801C12.6533 11.6001 12.4925 11.5601 12.3216 11.8001C12.1508 12.0501 11.6784 12.6101 11.5377 12.7701C11.397 12.9401 11.2462 12.9601 10.995 12.8301C10.7437 12.7101 9.9397 12.4401 8.99497 11.6001C8.25126 10.9401 7.75879 10.1301 7.60804 9.88006C7.46734 9.63006 7.58794 9.50006 7.71859 9.37006C7.82914 9.26006 7.96985 9.08006 8.09045 8.94006C8.21105 8.80006 8.26131 8.69006 8.34171 8.53006C8.42211 8.36006 8.38191 8.22006 8.32161 8.10006C8.2613 7.98006 7.75879 6.76006 7.55779 6.26006C7.35678 5.78006 7.14573 5.84006 6.99497 5.83006H6.51256C6.34171 5.83006 6.0804 5.89006 5.84925 6.14006C5.62814 6.39006 4.98492 6.99006 4.98492 8.21006C4.98492 9.43006 5.8794 10.6101 6 10.7701C6.1206 10.9401 7.75879 13.4401 10.2513 14.5101C10.8442 14.7701 11.3065 14.9201 11.6683 15.0301C12.2613 15.2201 12.804 15.1901 13.2362 15.1301C13.7186 15.0601 14.7136 14.5301 14.9146 13.9501C15.1256 13.3701 15.1256 12.8801 15.0553 12.7701C14.9849 12.6601 14.8342 12.6101 14.5829 12.4901Z" fill="#4046B2"/>
</svg>
