<svg width="1287" height="209" viewBox="0 0 1287 209" fill="none" xmlns="http://www.w3.org/2000/svg">
<path d="M1268 0C1267.65 0 1267.31 0.140125 1267.06 0.389548C1266.81 0.638971 1266.67 0.977262 1266.67 1.33V35.34H1263.03C1262.68 35.34 1262.34 35.4801 1262.09 35.7295C1261.84 35.979 1261.7 36.3173 1261.7 36.67C1261.7 37.0227 1261.84 37.361 1262.09 37.6105C1262.34 37.8599 1262.68 38 1263.03 38H1272.53C1272.89 38 1273.22 37.8599 1273.47 37.6105C1273.72 37.361 1273.86 37.0227 1273.86 36.67C1273.86 36.3173 1273.72 35.979 1273.47 35.7295C1273.22 35.4801 1272.89 35.34 1272.53 35.34H1269.33V17.86H1285.67C1286.02 17.86 1286.36 17.7199 1286.61 17.4705C1286.86 17.221 1287 16.8827 1287 16.53V1.33C1287 0.977262 1286.86 0.638971 1286.61 0.389548C1286.36 0.140125 1286.02 0 1285.67 0H1268.19C1268.16 9.75266e-05 1268.13 0.00136503 1268.09 0.0038C1268.06 0.00143743 1268.03 0.00016998 1268 0V0ZM1273.24 2.66H1276.97V5.4834H1280.69V2.66H1284.34V5.4834H1280.69V9.20702H1284.34V12.931H1280.69V15.2H1276.97V12.9314H1273.24V15.2H1269.52V12.9314H1273.24V9.20702H1269.52V5.48302H1273.24V2.66ZM1273.24 5.4834V9.20702H1276.97V5.48302H1273.24V5.4834ZM1276.97 9.20702V12.931H1280.69V9.20702H1276.97Z" fill="#333333"/>
<path d="M917.5 73.0001L917.736 73.9718L917.5 73.0001ZM1258.29 39.797C1258.68 39.4043 1259.31 39.4007 1259.7 39.7891C1260.1 40.1774 1260.1 40.8106 1259.71 41.2033L1258.29 39.797ZM467 99.0001L467.621 99.7837L467 99.0001ZM30.3132 157.027C30.5925 157.504 30.4327 158.116 29.9563 158.396C29.4798 158.675 28.8672 158.515 28.5879 158.039L30.3132 157.027ZM33.0355 164.804C32.7087 164.358 32.8049 163.733 33.2502 163.406C33.6955 163.079 34.3213 163.175 34.648 163.621L33.0355 164.804ZM39.6485 169.754C40.0187 170.164 39.9864 170.796 39.5766 171.166C39.1667 171.536 38.5344 171.504 38.1642 171.094L39.6485 169.754ZM43.878 176.829C43.4698 176.457 43.4404 175.824 43.8125 175.416C44.1844 175.008 44.817 174.979 45.2252 175.351L43.878 176.829ZM51.3152 180.406C51.7556 180.739 51.8424 181.367 51.5091 181.807C51.1758 182.247 50.5486 182.334 50.1083 182.001L51.3152 180.406ZM56.792 186.623C56.3251 186.328 56.1858 185.711 56.4808 185.244C56.7759 184.777 57.3935 184.638 57.8603 184.933L56.792 186.623ZM64.6996 188.894C65.1875 189.152 65.3733 189.758 65.1145 190.246C64.8557 190.734 64.2505 190.919 63.7626 190.661L64.6996 188.894ZM71.019 194.19C70.5145 193.965 70.2877 193.374 70.5124 192.87C70.737 192.365 71.3282 192.138 71.8327 192.363L71.019 194.19ZM79.233 195.382C79.7505 195.575 80.0135 196.151 79.8207 196.669C79.6277 197.186 79.0517 197.449 78.5343 197.256L79.233 195.382ZM86.1389 199.852C85.6116 199.687 85.3171 199.127 85.4813 198.6C85.6455 198.072 86.206 197.778 86.7334 197.942L86.1389 199.852ZM94.3882 200.114C94.9231 200.252 95.245 200.797 95.1073 201.332C94.9695 201.867 94.4243 202.189 93.8894 202.051L94.3882 200.114ZM101.79 203.893C101.25 203.78 100.904 203.25 101.017 202.709C101.13 202.169 101.661 201.822 102.201 201.936L101.79 203.893ZM109.981 203.403C110.525 203.495 110.893 204.011 110.801 204.555C110.709 205.1 110.194 205.467 109.649 205.375L109.981 203.403ZM117.644 206.566C117.097 206.494 116.71 205.993 116.782 205.445C116.853 204.897 117.355 204.511 117.903 204.583L117.644 206.566ZM125.816 205.477C126.366 205.53 126.768 206.018 126.716 206.568C126.663 207.118 126.174 207.52 125.624 207.468L125.816 205.477ZM133.644 208.113C133.093 208.077 132.675 207.601 132.711 207.05C132.747 206.499 133.223 206.081 133.774 206.117L133.644 208.113ZM141.769 206.522C142.321 206.542 142.752 207.006 142.732 207.558C142.711 208.11 142.248 208.541 141.696 208.521L141.769 206.522ZM149.711 208.707C149.159 208.701 148.716 208.249 148.722 207.697C148.727 207.144 149.18 206.701 149.732 206.707L149.711 208.707ZM157.76 206.689C158.312 206.681 158.766 207.122 158.774 207.675C158.782 208.227 158.341 208.681 157.789 208.689L157.76 206.689ZM165.787 208.481C165.235 208.502 164.771 208.071 164.751 207.519C164.73 206.967 165.161 206.503 165.713 206.483L165.787 208.481ZM173.742 206.096C174.293 206.063 174.766 206.484 174.799 207.035C174.831 207.586 174.411 208.06 173.859 208.092L173.742 206.096ZM181.834 207.541C181.284 207.584 180.802 207.173 180.759 206.623C180.715 206.072 181.126 205.591 181.676 205.547L181.834 207.541ZM189.683 204.834C190.233 204.78 190.722 205.182 190.776 205.732C190.831 206.281 190.429 206.771 189.88 206.825L189.683 204.834ZM197.828 205.968C197.28 206.032 196.783 205.639 196.719 205.09C196.655 204.542 197.048 204.045 197.596 203.981L197.828 205.968ZM205.566 202.978C206.114 202.904 206.617 203.288 206.691 203.836C206.764 204.383 206.38 204.886 205.833 204.96L205.566 202.978ZM213.754 203.826C213.208 203.909 212.698 203.533 212.615 202.987C212.532 202.441 212.908 201.932 213.454 201.849L213.754 203.826ZM221.378 200.583C221.923 200.491 222.439 200.859 222.53 201.403C222.622 201.948 222.254 202.464 221.709 202.555L221.378 200.583ZM229.599 201.168C229.056 201.268 228.535 200.908 228.435 200.365C228.335 199.822 228.694 199.301 229.238 199.201L229.599 201.168ZM237.11 197.694C237.652 197.586 238.179 197.938 238.286 198.479C238.394 199.021 238.043 199.548 237.501 199.655L237.11 197.694ZM245.355 198.033C244.815 198.148 244.284 197.804 244.168 197.264C244.053 196.724 244.397 196.193 244.937 196.077L245.355 198.033ZM252.755 194.346C253.294 194.223 253.83 194.56 253.953 195.098C254.076 195.637 253.739 196.173 253.201 196.296L252.755 194.346ZM261.015 194.453C260.479 194.583 259.938 194.254 259.807 193.717C259.677 193.18 260.006 192.64 260.543 192.509L261.015 194.453ZM268.305 190.567C268.84 190.43 269.386 190.752 269.523 191.287C269.661 191.822 269.339 192.367 268.804 192.504L268.305 190.567ZM276.571 190.452C276.038 190.597 275.489 190.282 275.344 189.749C275.2 189.216 275.515 188.666 276.048 188.522L276.571 190.452ZM283.754 186.378C284.285 186.227 284.838 186.535 284.99 187.066C285.141 187.597 284.833 188.15 284.302 188.302L283.754 186.378ZM292.016 186.05C291.486 186.208 290.929 185.908 290.771 185.378C290.613 184.849 290.914 184.292 291.443 184.134L292.016 186.05ZM299.093 181.796C299.62 181.631 300.181 181.925 300.346 182.452C300.511 182.979 300.217 183.54 299.69 183.705L299.093 181.796ZM307.34 181.261C306.815 181.432 306.251 181.146 306.08 180.621C305.908 180.096 306.195 179.531 306.72 179.36L307.34 181.261ZM314.314 176.83C314.837 176.652 315.405 176.932 315.583 177.455C315.76 177.978 315.481 178.546 314.958 178.724L314.314 176.83ZM322.54 176.093C322.019 176.278 321.448 176.005 321.263 175.484C321.079 174.964 321.352 174.392 321.872 174.208L322.54 176.093ZM329.407 171.489C329.925 171.298 330.5 171.564 330.691 172.082C330.881 172.601 330.616 173.176 330.097 173.366L329.407 171.489ZM337.61 170.55C337.094 170.747 336.516 170.488 336.319 169.972C336.122 169.456 336.38 168.878 336.896 168.681L337.61 170.55ZM344.361 165.776C344.875 165.572 345.456 165.823 345.659 166.337C345.863 166.85 345.612 167.431 345.098 167.635L344.361 165.776ZM352.539 164.63C352.029 164.841 351.444 164.597 351.234 164.086C351.024 163.575 351.268 162.991 351.779 162.781L352.539 164.63ZM359.165 159.689C359.673 159.472 360.26 159.709 360.477 160.217C360.693 160.725 360.457 161.312 359.949 161.529L359.165 159.689ZM367.315 158.332C366.81 158.556 366.22 158.327 365.997 157.822C365.774 157.316 366.002 156.726 366.507 156.503L367.315 158.332ZM373.803 153.223C374.305 152.993 374.898 153.214 375.128 153.716C375.358 154.218 375.137 154.812 374.635 155.042L373.803 153.223ZM381.922 151.647C381.423 151.884 380.826 151.671 380.59 151.172C380.353 150.673 380.566 150.077 381.065 149.84L381.922 151.647ZM388.259 146.368C388.754 146.125 389.354 146.329 389.597 146.825C389.841 147.32 389.636 147.92 389.141 148.163L388.259 146.368ZM396.34 144.562C395.847 144.813 395.245 144.617 394.995 144.125C394.744 143.633 394.94 143.031 395.432 142.78L396.34 144.562ZM402.513 139.108C403.001 138.85 403.606 139.037 403.864 139.526C404.122 140.014 403.935 140.619 403.447 140.877L402.513 139.108ZM410.545 137.059C410.061 137.324 409.453 137.147 409.188 136.662C408.923 136.178 409.1 135.57 409.584 135.305L410.545 137.059ZM416.541 131.421C417.021 131.148 417.631 131.316 417.904 131.796C418.177 132.276 418.01 132.887 417.53 133.16L416.541 131.421ZM424.51 129.111C424.035 129.393 423.421 129.235 423.14 128.76C422.859 128.284 423.017 127.671 423.492 127.39L424.51 129.111ZM430.309 123.278C430.779 122.989 431.395 123.135 431.685 123.606C431.974 124.076 431.827 124.692 431.357 124.982L430.309 123.278ZM438.195 120.687C437.73 120.985 437.111 120.85 436.813 120.385C436.515 119.92 436.65 119.302 437.115 119.004L438.195 120.687ZM443.775 114.641C444.234 114.333 444.855 114.456 445.163 114.915C445.47 115.374 445.347 115.995 444.888 116.303L443.775 114.641ZM451.548 111.743C451.095 112.06 450.472 111.95 450.155 111.498C449.838 111.046 449.948 110.422 450.401 110.105L451.548 111.743ZM456.88 105.46C457.325 105.133 457.951 105.229 458.278 105.674C458.604 106.119 458.509 106.745 458.063 107.072L456.88 105.46ZM464.498 102.227C464.061 102.565 463.433 102.484 463.096 102.047C462.758 101.61 462.839 100.982 463.276 100.644L464.498 102.227ZM469.601 95.713C470.04 95.3785 470.668 95.4636 471.002 95.903C471.337 96.3425 471.252 96.9699 470.812 97.3044L469.601 95.713ZM477.185 92.6515C476.733 92.968 476.109 92.8576 475.793 92.405C475.476 91.9523 475.587 91.3289 476.039 91.0124L477.185 92.6515ZM482.728 86.5471C483.194 86.2506 483.812 86.388 484.109 86.8539C484.405 87.3199 484.268 87.938 483.802 88.2345L482.728 86.5471ZM490.524 84.1664C490.046 84.4415 489.434 84.2762 489.159 83.7972C488.884 83.3183 489.049 82.7071 489.528 82.4321L490.524 84.1664ZM496.603 78.5913C497.095 78.3396 497.697 78.5341 497.949 79.0257C498.2 79.5173 498.006 80.1199 497.514 80.3716L496.603 78.5913ZM504.639 76.9436C504.135 77.1706 503.543 76.9464 503.316 76.4429C503.089 75.9395 503.313 75.3473 503.817 75.1203L504.639 76.9436ZM511.168 72.0273C511.682 71.8261 512.262 72.0799 512.463 72.5943C512.664 73.1086 512.411 73.6886 511.896 73.8898L511.168 72.0273ZM519.363 71.1885C518.839 71.363 518.272 71.0796 518.098 70.5556C517.924 70.0316 518.207 69.4653 518.731 69.2909L519.363 71.1885ZM526.389 66.9574C526.921 66.8099 527.472 67.1218 527.619 67.654C527.767 68.1862 527.455 68.7372 526.923 68.8847L526.389 66.9574ZM534.585 66.9672C534.046 67.0879 533.511 66.7489 533.39 66.2099C533.27 65.671 533.609 65.1363 534.148 65.0155L534.585 66.9672ZM542.012 63.4539C542.556 63.3594 543.074 63.7238 543.168 64.268C543.263 64.8121 542.898 65.3298 542.354 65.4244L542.012 63.4539ZM550.177 64.2507C549.63 64.3202 549.129 63.9324 549.059 63.3846C548.99 62.8367 549.378 62.3361 549.926 62.2666L550.177 64.2507ZM557.889 61.4311C558.44 61.3851 558.923 61.794 558.969 62.3444C559.015 62.8947 558.606 63.3782 558.056 63.4242L557.889 61.4311ZM565.959 62.9232C565.408 62.9474 564.941 62.5198 564.916 61.968C564.892 61.4162 565.32 60.9494 565.872 60.9252L565.959 62.9232ZM573.86 60.7209C574.412 60.7166 574.863 61.1607 574.868 61.713C574.872 62.2653 574.428 62.7165 573.876 62.7209L573.86 60.7209ZM581.816 62.789C581.264 62.7755 580.827 62.317 580.841 61.7649C580.854 61.2128 581.313 60.7761 581.865 60.7896L581.816 62.789ZM589.846 61.1013C590.397 61.1306 590.82 61.6014 590.791 62.1529C590.762 62.7044 590.291 63.1277 589.739 63.0985L589.846 61.1013ZM597.65 63.6198C597.099 63.5768 596.688 63.0955 596.731 62.545C596.774 61.9943 597.255 61.5829 597.806 61.6259L597.65 63.6198ZM605.777 62.338C606.326 62.3929 606.727 62.883 606.672 63.4325C606.617 63.9821 606.127 64.383 605.578 64.3281L605.777 62.338ZM613.464 65.1912C612.915 65.1263 612.523 64.629 612.588 64.0805C612.653 63.5321 613.151 63.1401 613.699 63.2051L613.464 65.1912ZM621.608 64.2046C622.155 64.2778 622.539 64.781 622.466 65.3284C622.393 65.8758 621.89 66.2602 621.342 66.1869L621.608 64.2046ZM629.248 67.2967C628.701 67.2167 628.323 66.7088 628.403 66.1624C628.483 65.6159 628.991 65.2378 629.538 65.3178L629.248 67.2967ZM637.389 66.5078C637.934 66.5931 638.308 67.1046 638.222 67.6503C638.137 68.1959 637.626 68.5691 637.08 68.4839L637.389 66.5078ZM644.944 69.7432C644.399 69.654 644.029 69.1399 644.119 68.5948C644.208 68.0498 644.722 67.6803 645.267 67.7694L644.944 69.7432ZM653.134 69.0776C653.679 69.1694 654.046 69.6853 653.954 70.2299C653.862 70.7745 653.346 71.1416 652.801 71.0497L653.134 69.0776ZM660.633 72.3824C660.089 72.2891 659.723 71.7722 659.816 71.2278C659.91 70.6835 660.427 70.3178 660.971 70.4111L660.633 72.3824ZM668.856 71.7668C669.4 71.8605 669.765 72.3777 669.672 72.9219C669.578 73.4662 669.061 73.8315 668.517 73.7378L668.856 71.7668ZM676.331 75.08C675.786 74.9868 675.421 74.47 675.514 73.9257C675.607 73.3813 676.124 73.0155 676.668 73.1086L676.331 75.08ZM684.534 74.4442C685.078 74.5358 685.446 75.0516 685.354 75.5962C685.262 76.1409 684.747 76.5081 684.202 76.4165L684.534 74.4442ZM692.051 77.7209C691.506 77.6316 691.137 77.1174 691.226 76.5724C691.315 76.0273 691.83 75.6579 692.375 75.7472L692.051 77.7209ZM700.231 77.0126C700.777 77.0988 701.149 77.6109 701.063 78.1564C700.977 78.7019 700.465 79.0743 699.919 78.9881L700.231 77.0126ZM707.806 80.2068C707.26 80.1244 706.884 79.6149 706.966 79.0688C707.048 78.5227 707.558 78.1468 708.104 78.2292L707.806 80.2068ZM715.96 79.382C716.507 79.4598 716.887 79.9662 716.809 80.513C716.731 81.0598 716.225 81.4399 715.678 81.362L715.96 79.382ZM723.601 82.4536C723.054 82.3808 722.669 81.878 722.741 81.3306C722.814 80.7831 723.317 80.3983 723.865 80.4711L723.601 82.4536ZM731.726 81.4756C732.274 81.5427 732.664 82.0415 732.597 82.5897C732.53 83.1379 732.031 83.5279 731.483 83.4607L731.726 81.4756ZM739.44 84.3902C738.891 84.3293 738.495 83.8349 738.556 83.286C738.617 82.7371 739.111 82.3415 739.66 82.4024L739.44 84.3902ZM747.53 83.2287C748.08 83.2831 748.481 83.7727 748.427 84.3223C748.373 84.8719 747.883 85.2734 747.334 85.219L747.53 83.2287ZM755.319 85.9569C754.769 85.9097 754.361 85.4253 754.408 84.8751C754.456 84.3248 754.94 83.917 755.49 83.9642L755.319 85.9569ZM763.371 84.5878C763.922 84.6276 764.336 85.1064 764.296 85.6573C764.256 86.2081 763.777 86.6224 763.226 86.5826L763.371 84.5878ZM771.233 87.1048C770.681 87.0728 770.26 86.5999 770.292 86.0485C770.324 85.4972 770.797 85.0761 771.348 85.1082L771.233 87.1048ZM779.24 85.509C779.792 85.533 780.22 85.9998 780.196 86.5515C780.172 87.1033 779.705 87.5312 779.153 87.5072L779.24 85.509ZM787.169 87.795C786.617 87.7793 786.182 87.3192 786.198 86.7671C786.213 86.215 786.674 85.7801 787.226 85.7958L787.169 87.795ZM795.128 85.9585C795.68 85.9656 796.122 86.419 796.115 86.9713C796.108 87.5235 795.655 87.9654 795.103 87.9583L795.128 85.9585ZM803.115 87.9979C802.563 87.9996 802.114 87.5532 802.112 87.001C802.111 86.4487 802.557 85.9996 803.109 85.9979L803.115 87.9979ZM811.024 85.9108C811.576 85.9003 812.032 86.3394 812.043 86.8915C812.053 87.4437 811.614 87.8999 811.062 87.9104L811.024 85.9108ZM819.057 87.693C818.505 87.7125 818.041 87.2809 818.022 86.729C818.002 86.177 818.434 85.7138 818.986 85.6942L819.057 87.693ZM826.915 85.3486C827.466 85.32 827.937 85.7439 827.965 86.2955C827.994 86.847 827.57 87.3173 827.018 87.3459L826.915 85.3486ZM834.978 86.8673C834.427 86.905 833.95 86.4889 833.912 85.9379C833.874 85.3869 834.29 84.9097 834.841 84.872L834.978 86.8673ZM842.79 84.2615C843.34 84.2147 843.824 84.6227 843.871 85.173C843.918 85.7233 843.51 86.2074 842.96 86.2543L842.79 84.2615ZM850.866 85.5149C850.317 85.5709 849.826 85.1708 849.77 84.6214C849.714 84.0719 850.114 83.5811 850.663 83.5252L850.866 85.5149ZM858.638 82.6453C859.186 82.5802 859.684 82.9719 859.749 83.5203C859.814 84.0688 859.422 84.5662 858.874 84.6313L858.638 82.6453ZM866.711 83.6351C866.164 83.7092 865.66 83.3257 865.586 82.7784C865.512 82.2311 865.895 81.7273 866.443 81.6532L866.711 83.6351ZM874.342 80.5169C874.888 80.4338 875.398 80.809 875.481 81.355C875.565 81.901 875.189 82.411 874.643 82.4941L874.342 80.5169ZM882.506 81.2315C881.962 81.3235 881.446 80.9566 881.354 80.412C881.262 79.8675 881.628 79.3514 882.173 79.2594L882.506 81.2315ZM889.98 77.876C890.523 77.7753 891.045 78.1338 891.146 78.6768C891.246 79.2198 890.888 79.7417 890.345 79.8424L889.98 77.876ZM898.25 78.31C897.709 78.4194 897.181 78.0693 897.072 77.528C896.963 76.9866 897.313 76.4591 897.854 76.3496L898.25 78.31ZM905.55 74.7311C906.09 74.6132 906.623 74.9551 906.741 75.4946C906.858 76.0342 906.517 76.5672 905.977 76.685L905.55 74.7311ZM913.794 74.9137C913.256 75.0399 912.718 74.7064 912.592 74.1687C912.465 73.6311 912.799 73.0928 913.337 72.9666L913.794 74.9137ZM921.256 71.0754C921.794 70.9493 922.332 71.2831 922.458 71.8208C922.584 72.3585 922.25 72.8966 921.712 73.0226L921.256 71.0754ZM929.513 71.2619C928.973 71.379 928.441 71.0363 928.324 70.4966C928.206 69.9569 928.549 69.4244 929.089 69.3073L929.513 71.2619ZM936.723 67.7187C937.264 67.6108 937.791 67.9625 937.899 68.5041C938.007 69.0458 937.655 69.5723 937.113 69.6802L936.723 67.7187ZM945.058 68.1747C944.514 68.2724 943.994 67.911 943.897 67.3674C943.799 66.8238 944.16 66.304 944.704 66.2063L945.058 68.1747ZM952.494 64.8831C953.039 64.796 953.552 65.1674 953.639 65.7128C953.726 66.2581 953.355 66.7709 952.81 66.8581L952.494 64.8831ZM960.677 65.6829C960.13 65.7588 959.625 65.3769 959.549 64.8298C959.473 64.2828 959.855 63.7778 960.402 63.7019L960.677 65.6829ZM968.312 62.6913C968.861 62.6273 969.357 63.0202 969.421 63.5688C969.485 64.1173 969.092 64.6139 968.544 64.6779L968.312 62.6913ZM976.389 63.8531C975.839 63.9045 975.352 63.5004 975.301 62.9505C975.249 62.4006 975.653 61.9132 976.203 61.8618L976.389 63.8531ZM984.188 61.2128C984.739 61.1749 985.216 61.5908 985.254 62.1418C985.292 62.6927 984.876 63.1702 984.325 63.2081L984.188 61.2128ZM992.189 62.766C991.638 62.7899 991.171 62.362 991.147 61.8103C991.123 61.2585 991.551 60.7918 992.103 60.7679L992.189 62.766ZM1000.11 60.5285C1000.66 60.5196 1001.11 60.9599 1001.12 61.5121C1001.13 62.0644 1000.69 62.5193 1000.14 62.5283L1000.11 60.5285ZM1008.04 62.5104C1007.49 62.5038 1007.05 62.0508 1007.05 61.4985C1007.06 60.9463 1007.51 60.504 1008.07 60.5106L1008.04 62.5104ZM1016.03 60.7225C1016.58 60.7454 1017.01 61.2113 1016.98 61.7631C1016.96 62.3149 1016.5 62.7437 1015.94 62.7208L1016.03 60.7225ZM1023.88 63.172C1023.33 63.1321 1022.91 62.6532 1022.95 62.1024C1022.99 61.5515 1023.47 61.1373 1024.02 61.1772L1023.88 63.172ZM1031.88 61.8696C1032.42 61.9267 1032.82 62.4184 1032.77 62.9677C1032.71 63.517 1032.22 63.916 1031.67 63.8588L1031.88 61.8696ZM1039.61 64.8175C1039.07 64.7423 1038.68 64.2377 1038.76 63.6906C1038.83 63.1435 1039.34 62.7609 1039.88 62.8361L1039.61 64.8175ZM1047.76 64.0503C1048.3 64.1434 1048.67 64.6603 1048.57 65.2046C1048.48 65.749 1047.96 66.1148 1047.42 66.0216L1047.76 64.0503ZM1055.14 67.4744C1054.6 67.3635 1054.25 66.835 1054.36 66.2939C1054.48 65.7529 1055 65.4043 1055.55 65.5152L1055.14 67.4744ZM1063.39 67.2583C1063.93 67.3868 1064.26 67.9264 1064.13 68.4635C1064 69.0006 1063.46 69.3319 1062.92 69.2033L1063.39 67.2583ZM1070.6 71.1669C1070.06 71.0217 1069.75 70.4721 1069.89 69.9392C1070.04 69.4063 1070.59 69.092 1071.12 69.2372L1070.6 71.1669ZM1078.76 71.4384C1079.29 71.5988 1079.59 72.1573 1079.43 72.6858C1079.27 73.2143 1078.71 73.5126 1078.18 73.3522L1078.76 71.4384ZM1085.7 75.7452C1085.18 75.5713 1084.9 75.0054 1085.07 74.4812C1085.24 73.957 1085.81 73.673 1086.33 73.8469L1085.7 75.7452ZM1093.9 76.4487C1094.42 76.6337 1094.69 77.2055 1094.5 77.7259C1094.32 78.2463 1093.75 78.5182 1093.23 78.3333L1093.9 76.4487ZM1100.69 81.0541C1100.17 80.8614 1099.91 80.2856 1100.1 79.768C1100.3 79.2505 1100.87 78.9872 1101.39 79.1799L1100.69 81.0541ZM1108.83 81.9894C1109.35 82.1859 1109.61 82.7636 1109.41 83.2797C1109.22 83.7959 1108.64 84.055 1108.12 83.8585L1108.83 81.9894ZM1115.55 86.683C1115.04 86.488 1114.77 85.911 1114.97 85.3943C1115.16 84.8776 1115.74 84.6169 1116.26 84.812L1115.55 86.683ZM1123.69 87.5654C1124.21 87.7527 1124.48 88.3257 1124.3 88.8453C1124.11 89.3648 1123.54 89.6342 1123.02 89.4469L1123.69 87.5654ZM1130.55 92.0482C1130.03 91.8766 1129.74 91.312 1129.91 90.787C1130.09 90.262 1130.65 89.9756 1131.18 90.1471L1130.55 92.0482ZM1138.73 92.432C1139.27 92.5783 1139.58 93.1287 1139.43 93.6612C1139.29 94.1938 1138.74 94.5069 1138.2 94.3605L1138.73 92.432ZM1145.99 96.2339C1145.45 96.1238 1145.1 95.5957 1145.21 95.0545C1145.32 94.5134 1145.85 94.164 1146.39 94.2741L1145.99 96.2339ZM1154.14 95.5176C1154.69 95.5806 1155.08 96.0764 1155.02 96.6251C1154.95 97.1738 1154.46 97.5675 1153.91 97.5046L1154.14 95.5176ZM1161.93 98.0198C1161.38 98.0131 1160.93 97.5601 1160.94 97.0078C1160.95 96.4556 1161.4 96.0133 1161.95 96.0199L1161.93 98.0198ZM1169.77 95.6847C1170.32 95.6305 1170.81 96.0321 1170.86 96.5817C1170.92 97.1313 1170.51 97.6208 1169.97 97.675L1169.77 95.6847ZM1177.91 96.4458C1177.37 96.5597 1176.84 96.214 1176.73 95.6735C1176.61 95.1331 1176.96 94.6027 1177.5 94.4888L1177.91 96.4458ZM1185.06 92.4844C1185.59 92.3168 1186.15 92.6075 1186.32 93.1337C1186.49 93.6599 1186.2 94.2224 1185.67 94.3901L1185.06 92.4844ZM1193.19 91.6164C1192.68 91.8297 1192.09 91.5896 1191.88 91.0802C1191.66 90.5707 1191.9 89.9848 1192.41 89.7716L1193.19 91.6164ZM1199.54 86.4581C1200.04 86.2073 1200.64 86.4029 1200.89 86.8949C1201.14 87.387 1200.94 87.9892 1200.45 88.24L1199.54 86.4581ZM1207.51 84.3511C1207.03 84.6323 1206.42 84.475 1206.14 83.9997C1205.86 83.5244 1206.01 82.9111 1206.49 82.6298L1207.51 84.3511ZM1213.18 78.4264C1213.64 78.1208 1214.26 78.246 1214.56 78.706C1214.87 79.166 1214.74 79.7867 1214.28 80.0923L1213.18 78.4264ZM1220.76 75.5762C1220.32 75.9013 1219.69 75.8029 1219.37 75.3564C1219.04 74.9099 1219.14 74.2845 1219.59 73.9594L1220.76 75.5762ZM1225.95 69.1381C1226.39 68.7968 1227.01 68.8721 1227.36 69.3063C1227.7 69.7405 1227.62 70.3691 1227.19 70.7104L1225.95 69.1381ZM1233.34 65.7132C1232.92 66.0677 1232.29 66.0118 1231.93 65.5882C1231.58 65.1647 1231.64 64.534 1232.06 64.1796L1233.34 65.7132ZM1238.05 59.0223C1238.47 58.6568 1239.1 58.6961 1239.47 59.1102C1239.83 59.5242 1239.79 60.1561 1239.38 60.5216L1238.05 59.0223ZM1245.32 55.1542C1244.91 55.529 1244.28 55.5041 1243.9 55.0985C1243.53 54.6929 1243.55 54.0603 1243.96 53.6854L1245.32 55.1542ZM1249.69 48.2797C1250.09 47.897 1250.72 47.9095 1251.11 48.3077C1251.49 48.7059 1251.48 49.3389 1251.08 49.7216L1249.69 48.2797ZM1256.79 44.1352C1256.4 44.5247 1255.76 44.5231 1255.37 44.1316C1254.98 43.7401 1254.99 43.1069 1255.38 42.7174L1256.79 44.1352ZM28.3875 153.539C29.0024 154.724 29.6445 155.887 30.3132 157.027L28.5879 158.039C27.9017 156.868 27.243 155.676 26.6124 154.461L28.3875 153.539ZM34.648 163.621C36.2113 165.751 37.8795 167.795 39.6485 169.754L38.1642 171.094C36.3504 169.086 34.6394 166.99 33.0355 164.804L34.648 163.621ZM45.2252 175.351C47.1623 177.116 49.1936 178.801 51.3152 180.406L50.1083 182.001C47.9397 180.36 45.8614 178.636 43.878 176.829L45.2252 175.351ZM57.8603 184.933C60.0619 186.324 62.3428 187.644 64.6996 188.894L63.7626 190.661C61.3628 189.388 59.0379 188.043 56.792 186.623L57.8603 184.933ZM71.8327 192.363C74.2339 193.432 76.7018 194.439 79.233 195.382L78.5343 197.256C75.9658 196.299 73.4596 195.277 71.019 194.19L71.8327 192.363ZM86.7334 197.942C89.2323 198.72 91.7849 199.444 94.3882 200.114L93.8894 202.051C91.2552 201.372 88.6708 200.64 86.1389 199.852L86.7334 197.942ZM102.201 201.936C104.752 202.471 107.346 202.96 109.981 203.403L109.649 205.375C106.989 204.928 104.369 204.434 101.79 203.893L102.201 201.936ZM117.903 204.583C120.506 204.922 123.144 205.22 125.816 205.477L125.624 207.468C122.931 207.208 120.27 206.908 117.644 206.566L117.903 204.583ZM133.774 206.117C136.411 206.289 139.076 206.424 141.769 206.522L141.696 208.521C138.985 208.422 136.3 208.286 133.644 208.113L133.774 206.117ZM149.732 206.707C152.385 206.734 155.062 206.728 157.76 206.689L157.789 208.689C155.074 208.728 152.381 208.734 149.711 208.707L149.732 206.707ZM165.713 206.483C168.37 206.384 171.047 206.254 173.742 206.096L173.859 208.092C171.151 208.252 168.46 208.382 165.787 208.481L165.713 206.483ZM181.676 205.547C184.331 205.337 187 205.099 189.683 204.834L189.88 206.825C187.184 207.091 184.502 207.33 181.834 207.541L181.676 205.547ZM197.596 203.981C200.241 203.672 202.899 203.337 205.566 202.978L205.833 204.96C203.154 205.321 200.485 205.657 197.828 205.968L197.596 203.981ZM213.454 201.849C216.087 201.45 218.729 201.028 221.378 200.583L221.709 202.555C219.05 203.002 216.397 203.426 213.754 203.826L213.454 201.849ZM229.238 199.201C231.856 198.72 234.481 198.217 237.11 197.694L237.501 199.655C234.862 200.181 232.227 200.685 229.599 201.168L229.238 199.201ZM244.937 196.077C247.54 195.52 250.146 194.943 252.755 194.346L253.201 196.296C250.583 196.895 247.967 197.474 245.355 198.033L244.937 196.077ZM260.543 192.509C263.129 191.88 265.717 191.233 268.305 190.567L268.804 192.504C266.207 193.172 263.61 193.822 261.015 194.453L260.543 192.509ZM276.048 188.522C278.618 187.825 281.187 187.11 283.754 186.378L284.302 188.302C281.727 189.036 279.149 189.753 276.571 190.452L276.048 188.522ZM291.443 184.134C293.996 183.371 296.547 182.591 299.093 181.796L299.69 183.705C297.135 184.503 294.577 185.285 292.016 186.05L291.443 184.134ZM306.72 179.36C309.257 178.532 311.788 177.689 314.314 176.83L314.958 178.724C312.424 179.585 309.885 180.431 307.34 181.261L306.72 179.36ZM321.872 174.208C324.391 173.317 326.903 172.41 329.407 171.489L330.097 173.366C327.586 174.29 325.066 175.199 322.54 176.093L321.872 174.208ZM336.896 168.681C339.394 167.727 341.883 166.758 344.361 165.776L345.098 167.635C342.612 168.621 340.115 169.592 337.61 170.55L336.896 168.681ZM351.779 162.781C354.253 161.764 356.715 160.733 359.165 159.689L359.949 161.529C357.491 162.576 355.021 163.61 352.539 164.63L351.779 162.781ZM366.507 156.503C368.953 155.423 371.386 154.329 373.803 153.223L374.635 155.042C372.21 156.151 369.769 157.248 367.315 158.332L366.507 156.503ZM381.065 149.84C383.48 148.695 385.878 147.538 388.259 146.368L389.141 148.163C386.752 149.337 384.345 150.498 381.922 151.647L381.065 149.84ZM395.432 142.78C397.812 141.568 400.173 140.344 402.513 139.108L403.447 140.877C401.098 142.117 398.729 143.346 396.34 144.562L395.432 142.78ZM409.584 135.305C411.926 134.022 414.246 132.727 416.541 131.421L417.53 133.16C415.225 134.471 412.897 135.77 410.545 137.059L409.584 135.305ZM423.492 127.39C425.792 126.03 428.064 124.659 430.309 123.278L431.357 124.982C429.102 126.369 426.819 127.746 424.51 129.111L423.492 127.39ZM437.115 119.004C439.367 117.559 441.588 116.105 443.775 114.641L444.888 116.303C442.689 117.774 440.457 119.236 438.195 120.687L437.115 119.004ZM450.401 110.105C452.598 108.566 454.758 107.018 456.88 105.46L458.063 107.072C455.93 108.639 453.757 110.196 451.548 111.743L450.401 110.105ZM463.276 100.644C464.321 99.8373 465.355 99.0279 466.379 98.2165L467.621 99.7837C466.591 100.601 465.55 101.415 464.498 102.227L463.276 100.644ZM466.379 98.2165C467.453 97.3647 468.527 96.5303 469.601 95.713L470.812 97.3044C469.749 98.1137 468.685 98.94 467.621 99.7837L466.379 98.2165ZM476.039 91.0124C478.269 89.4532 480.499 87.9656 482.728 86.5471L483.802 88.2345C481.597 89.6372 479.392 91.1087 477.185 92.6515L476.039 91.0124ZM489.528 82.4321C491.886 81.0784 494.243 79.7991 496.603 78.5913L497.514 80.3716C495.184 81.5646 492.854 82.8286 490.524 84.1664L489.528 82.4321ZM503.817 75.1203C506.264 74.017 508.714 72.9871 511.168 72.0273L511.896 73.8898C509.474 74.8373 507.056 75.8542 504.639 76.9436L503.817 75.1203ZM518.731 69.2909C521.279 68.4427 523.831 67.6661 526.389 66.9574L526.923 68.8847C524.397 69.5845 521.878 70.3512 519.363 71.1885L518.731 69.2909ZM534.148 65.0155C536.762 64.4299 539.383 63.9107 542.012 63.4539L542.354 65.4244C539.756 65.8758 537.167 66.3888 534.585 66.9672L534.148 65.0155ZM549.926 62.2666C552.571 61.9308 555.225 61.6537 557.889 61.4311L558.056 63.4242C555.419 63.6444 552.794 63.9187 550.177 64.2507L549.926 62.2666ZM565.872 60.9252C568.524 60.8089 571.186 60.742 573.86 60.7209L573.876 62.7209C571.225 62.7418 568.586 62.808 565.959 62.9232L565.872 60.9252ZM581.865 60.7896C584.513 60.8543 587.173 60.9594 589.846 61.1013L589.739 63.0985C587.084 62.9575 584.444 62.8532 581.816 62.789L581.865 60.7896ZM597.806 61.6259C600.449 61.8325 603.105 62.071 605.777 62.338L605.578 64.3281C602.92 64.0624 600.278 63.8253 597.65 63.6198L597.806 61.6259ZM613.699 63.2051C616.32 63.5155 618.956 63.8497 621.608 64.2046L621.342 66.1869C618.7 65.8332 616.074 65.5003 613.464 65.1912L613.699 63.2051ZM629.538 65.3178C632.139 65.6988 634.756 66.0964 637.389 66.5078L637.08 68.4839C634.453 68.0733 631.842 67.6767 629.248 67.2967L629.538 65.3178ZM645.267 67.7694C647.873 68.1958 650.495 68.6327 653.134 69.0776L652.801 71.0497C650.165 70.6053 647.546 70.1689 644.944 69.7432L645.267 67.7694ZM660.971 70.4111C663.582 70.8586 666.21 71.3113 668.856 71.7668L668.517 73.7378C665.871 73.2823 663.243 72.8297 660.633 72.3824L660.971 70.4111ZM676.668 73.1086C679.273 73.5541 681.894 74.0001 684.534 74.4442L684.202 76.4165C681.56 75.972 678.937 75.5257 676.331 75.08L676.668 73.1086ZM692.375 75.7472C694.976 76.1735 697.595 76.5959 700.231 77.0126L699.919 78.9881C697.278 78.5708 694.656 78.1477 692.051 77.7209L692.375 75.7472ZM708.104 78.2292C710.705 78.6214 713.323 79.0063 715.96 79.382L715.678 81.362C713.035 80.9855 710.411 80.5998 707.806 80.2068L708.104 78.2292ZM723.865 80.4711C726.467 80.817 729.087 81.1524 731.726 81.4756L731.483 83.4607C728.837 83.1367 726.21 82.8004 723.601 82.4536L723.865 80.4711ZM739.66 82.4024C742.266 82.6917 744.889 82.9676 747.53 83.2287L747.334 85.219C744.684 84.9571 742.053 84.6803 739.44 84.3902L739.66 82.4024ZM755.49 83.9642C758.099 84.1882 760.726 84.3965 763.371 84.5878L763.226 86.5826C760.572 86.3906 757.937 86.1816 755.319 85.9569L755.49 83.9642ZM771.348 85.1082C773.961 85.2598 776.591 85.3939 779.24 85.509L779.153 87.5072C776.495 87.3916 773.855 87.257 771.233 87.1048L771.348 85.1082ZM787.226 85.7958C789.842 85.8697 792.476 85.9244 795.128 85.9585L795.103 87.9583C792.44 87.9241 789.796 87.8692 787.169 87.795L787.226 85.7958ZM803.109 85.9979C805.73 85.99 808.368 85.9613 811.024 85.9108L811.062 87.9104C808.395 87.9612 805.747 87.99 803.115 87.9979L803.109 85.9979ZM818.986 85.6942C821.612 85.6013 824.254 85.4865 826.915 85.3486L827.018 87.3459C824.347 87.4844 821.693 87.5997 819.057 87.693L818.986 85.6942ZM834.841 84.872C837.474 84.6918 840.123 84.4887 842.79 84.2615L842.96 86.2543C840.282 86.4824 837.621 86.6864 834.978 86.8673L834.841 84.872ZM850.663 83.5252C853.305 83.2561 855.963 82.9632 858.638 82.6453L858.874 84.6313C856.188 84.9505 853.518 85.2447 850.866 85.5149L850.663 83.5252ZM866.443 81.6532C869.06 81.2988 871.693 80.9203 874.342 80.5169L874.643 82.4941C871.983 82.8992 869.339 83.2792 866.711 83.6351L866.443 81.6532ZM882.173 79.2594C884.76 78.8225 887.362 78.3616 889.98 77.876L890.345 79.8424C887.716 80.33 885.103 80.7928 882.506 81.2315L882.173 79.2594ZM897.854 76.3496C900.405 75.834 902.97 75.2947 905.55 74.7311L905.977 76.685C903.387 77.2508 900.811 77.7923 898.25 78.31L897.854 76.3496ZM913.337 72.9666C914.642 72.6601 915.951 72.3474 917.264 72.0284L917.736 73.9718C916.418 74.2921 915.104 74.606 913.794 74.9137L913.337 72.9666ZM917.264 72.0284C918.603 71.7029 919.934 71.3853 921.256 71.0754L921.712 73.0226C920.396 73.3313 919.07 73.6476 917.736 73.9718L917.264 72.0284ZM929.089 69.3073C931.666 68.7482 934.211 68.219 936.723 67.7187L937.113 69.6802C934.613 70.1782 932.079 70.7051 929.513 71.2619L929.089 69.3073ZM944.704 66.2063C947.337 65.7331 949.933 65.2924 952.494 64.8831L952.81 66.8581C950.262 67.2653 947.678 67.7038 945.058 68.1747L944.704 66.2063ZM960.402 63.7019C963.079 63.3305 965.715 62.9941 968.312 62.6913L968.544 64.6779C965.961 64.9789 963.339 65.3135 960.677 65.6829L960.402 63.7019ZM976.203 61.8618C978.909 61.6089 981.57 61.3932 984.188 61.2128L984.325 63.2081C981.724 63.3873 979.079 63.6017 976.389 63.8531L976.203 61.8618ZM992.103 60.7679C994.819 60.6502 997.486 60.5711 1000.11 60.5285L1000.14 62.5283C997.537 62.5706 994.887 62.6491 992.189 62.766L992.103 60.7679ZM1008.07 60.5106C1010.77 60.5429 1013.42 60.6145 1016.03 60.7225L1015.94 62.7208C1013.36 62.6136 1010.73 62.5426 1008.04 62.5104L1008.07 60.5106ZM1024.02 61.1772C1026.69 61.3708 1029.31 61.6026 1031.88 61.8696L1031.67 63.8588C1029.12 63.594 1026.53 63.364 1023.88 63.172L1024.02 61.1772ZM1039.88 62.8361C1042.57 63.2047 1045.19 63.6108 1047.76 64.0503L1047.42 66.0216C1044.87 65.5858 1042.27 65.183 1039.61 64.8175L1039.88 62.8361ZM1055.55 65.5152C1058.22 66.0639 1060.83 66.6467 1063.39 67.2583L1062.92 69.2033C1060.39 68.5967 1057.8 68.0186 1055.14 67.4744L1055.55 65.5152ZM1071.12 69.2372C1073.73 69.9471 1076.27 70.6831 1078.76 71.4384L1078.18 73.3522C1075.71 72.602 1073.18 71.8714 1070.6 71.1669L1071.12 69.2372ZM1086.33 73.8469C1088.91 74.7026 1091.43 75.5728 1093.9 76.4487L1093.23 78.3333C1090.77 77.4613 1088.27 76.5958 1085.7 75.7452L1086.33 73.8469ZM1101.39 79.1799C1103.92 80.1236 1106.4 81.0638 1108.83 81.9894L1108.12 83.8585C1105.69 82.9334 1103.22 81.9953 1100.69 81.0541L1101.39 79.1799ZM1116.26 84.812C1118.78 85.7639 1121.25 86.6859 1123.69 87.5654L1123.02 89.4469C1120.56 88.5627 1118.08 87.6368 1115.55 86.683L1116.26 84.812ZM1131.18 90.1471C1133.72 90.9789 1136.24 91.7458 1138.73 92.432L1138.2 94.3605C1135.67 93.6644 1133.12 92.888 1130.55 92.0482L1131.18 90.1471ZM1146.39 94.2741C1148.97 94.8003 1151.55 95.2207 1154.14 95.5176L1153.91 97.5046C1151.26 97.2005 1148.62 96.7705 1145.99 96.2339L1146.39 94.2741ZM1161.95 96.0199C1164.53 96.0509 1167.13 95.9449 1169.77 95.6847L1169.97 97.675C1167.25 97.9427 1164.58 98.0516 1161.93 98.0198L1161.95 96.0199ZM1177.5 94.4888C1179.97 93.9671 1182.49 93.3035 1185.06 92.4844L1185.67 94.3901C1183.04 95.2291 1180.45 95.91 1177.91 96.4458L1177.5 94.4888ZM1192.41 89.7716C1194.74 88.7972 1197.12 87.6958 1199.54 86.4581L1200.45 88.24C1197.98 89.4992 1195.56 90.6219 1193.19 91.6164L1192.41 89.7716ZM1206.49 82.6298C1208.67 81.3379 1210.9 79.9387 1213.18 78.4264L1214.28 80.0923C1211.98 81.6227 1209.72 83.0405 1207.51 84.3511L1206.49 82.6298ZM1219.59 73.9594C1221.67 72.4447 1223.79 70.8389 1225.95 69.1381L1227.19 70.7104C1225.01 72.4256 1222.87 74.0463 1220.76 75.5762L1219.59 73.9594ZM1232.06 64.1796C1234.02 62.5366 1236.02 60.8183 1238.05 59.0223L1239.38 60.5216C1237.33 62.3287 1235.32 64.0584 1233.34 65.7132L1232.06 64.1796ZM1243.96 53.6854C1245.84 51.948 1247.75 50.1467 1249.69 48.2797L1251.08 49.7216C1249.13 51.5973 1247.21 53.4075 1245.32 55.1542L1243.96 53.6854ZM1255.38 42.7174C1256.34 41.7595 1257.31 40.7861 1258.29 39.797L1259.71 41.2033C1258.73 42.1962 1257.75 43.1734 1256.79 44.1352L1255.38 42.7174Z" fill="#333333"/>
<circle cx="19" cy="139" r="18" stroke="#333333" stroke-width="2"/>
</svg>
